# xmcd
#
# Track frame offsets:
#	150
#	14192
#	27285
#	42557
#	56912
#	80045
#	97260
#	115932
#	131930
#	140717
#	155770
#	168310
#	181695
#	202582
#
# Disc length: 2852 seconds
#
# Revision: 1
# Processed by: cddbd v1.4PL0 Copyright (c) Steve Scherf et al.
# Submitted via: audiograbber 1.80
#
DISCID=d00b220e
DTITLE=Code Blue - (pre-existing condition)
DYEAR=1900
DGENRE=
TTITLE0=You Don't Move Me Anymore
TTITLE1=You Are the One
TTITLE2=Somebody's Crying
TTITLE3=What Do You Say
TTITLE4=Devil in Disguise
TTITLE5=Little Red Hen Blues
TTITLE6=Infirmary
TTITLE7=Give Me Some More Time
TTITLE8=Room Service
TTITLE9=When the Lights Go Out
TTITLE10=Make Love to You
TTITLE11=Shame
TTITLE12=Long Time Comin'
TTITLE13=Running Dog
EXTD=
EXTT0=
EXTT1=
EXTT2=
EXTT3=
EXTT4=
EXTT5=
EXTT6=
EXTT7=
EXTT8=
EXTT9=
EXTT10=
EXTT11=
EXTT12=
EXTT13=
PLAYORDER=
